<?xml version="1.0" encoding="iso-8859-1"?>
<!-- Uploaded to: SVG Repo, www.svgrepo.com, Generator: SVG Repo Mixer Tools -->
<svg fill="#000000" height="800px" width="800px" version="1.1" id="Capa_1" xmlns="http://www.w3.org/2000/svg" xmlns:xlink="http://www.w3.org/1999/xlink" 
	 viewBox="0 0 481.806 481.806" xml:space="preserve">
<g>
	<g>
		<path d="M107.641,193.505c0-31.5,25.7-57.2,57.2-57.2h108.8l-18.8,18.8l17.2,17.2l30.9-30.9l17.2-17.2l-17.1-17.2l-30.9-31
			l-17.2,17.2l18.8,18.8h-108.9c-45,0-81.5,36.6-81.5,81.5v36.3h24.3C107.641,229.805,107.641,193.505,107.641,193.505z"/>
		<path d="M382.541,294.905c0,31.5-25.7,57.2-57.2,57.2h-108.8l18.8-18.8l-17.3-17.2l-30.9,30.9l-17.2,17.2l17.2,17.2l30.9,30.9
			l17.2-17.2l-18.8-18.8h108.8c45,0,81.5-36.6,81.5-81.5v-36.3h-24.3v36.4H382.541z"/>
		<path d="M419.341,156.705L419.341,156.705v-8.4c0,0,26.5,0.8,39.1-12c0,0-18.3-5.2-15-38.5s-4.1-62.6-30.9-60.1
			c0,0-11.6-14-34.7-5.2c-7.9,3-29.2,10.6-28.1,56.8s-16.4,46.4-16.4,46.4s9,13.1,39.6,12.8v8.6l23.3,67.9l23.2-67.8
			L419.341,156.705z"/>
		<path d="M481.741,226.105l-4.7-25.8c-1.5-8.4-6.9-15.6-14.6-19.3l-29.3-14.4c-1.7-0.8-3.3-1.7-5-2.7l9.2,27.2l-12.9-1l-28.5,35
			l-28.5-35l-12.9,1l9.4-27.2l-5.9,3l-28.3,14.1c-7.6,3.8-13,10.9-14.6,19.3l-4.7,25.8c-0.3,1.9,1.1,3.6,3,3.6h81.6h2.2h81.5
			C480.641,229.805,482.141,228.005,481.741,226.105z"/>
		<path d="M109.141,379.305L109.141,379.305v-8.4c0,0,26.5,0.8,39.1-12c0,0-18.3-5.2-15-38.5s-4.1-62.6-30.9-60.1
			c0,0-11.6-14-34.7-5.2c-7.9,3-29.2,10.6-28.1,56.8c1.1,46.2-16.4,46.4-16.4,46.4s9,13.1,39.6,12.8v8.6l23.3,67.9l23.2-67.8
			L109.141,379.305z"/>
		<path d="M166.841,422.905c-1.5-8.4-6.9-15.6-14.6-19.3l-29.2-14.5c-1.7-0.8-3.3-1.7-5-2.7l9.2,27.2l-12.9-1l-28.5,35l-28.5-35
			l-12.9,1l9.4-27.2l-5.9,3l-28.6,14.1c-7.6,3.8-13,10.9-14.6,19.3l-4.7,25.8c-0.3,1.9,1.1,3.6,3,3.6h81.5h2.2h81.5
			c1.9,0,3.4-1.7,3-3.6L166.841,422.905z"/>
	</g>
</g>
</svg>